<?xml version="1.0" standalone="no"?>
<!DOCTYPE svg PUBLIC "-//W3C//DTD SVG 20010904//EN"
 "http://www.w3.org/TR/2001/REC-SVG-20010904/DTD/svg10.dtd">
<svg version="1.0" xmlns="http://www.w3.org/2000/svg"
 width="283.000000pt" height="283.000000pt" viewBox="0 0 283.000000 283.000000"
 preserveAspectRatio="xMidYMid meet">

<g transform="translate(0.000000,283.000000) scale(0.100000,-0.100000)"
fill="#000000" stroke="none">
<path d="M321 2798 c1 -18 1 -81 0 -139 l-1 -105 -92 -2 c-128 -3 -124 -12 5
-12 104 0 107 1 107 23 1 12 2 77 4 145 3 102 1 122 -11 122 -10 0 -14 -10
-12 -32z"/>
<path d="M621 2814 c0 -11 3 -14 6 -6 3 7 2 16 -1 19 -3 4 -6 -2 -5 -13z"/>
<path d="M711 2795 c0 -22 -2 -136 -4 -252 -3 -117 -1 -210 3 -208 5 3 9 78 9
168 1 89 4 187 7 217 2 30 1 69 -5 85 -9 30 -9 30 -10 -10z"/>
<path d="M990 2814 c0 -11 6 -14 23 -8 47 14 53 23 15 24 -28 0 -38 -4 -38
-16z"/>
<path d="M1380 2813 c91 -31 159 -93 206 -186 50 -98 70 -192 65 -298 -1 -14
-23 -17 -148 -22 -82 -4 -166 -11 -189 -16 -22 -6 -60 -12 -85 -15 -24 -2 -91
-14 -147 -26 -66 -13 -119 -19 -145 -15 -23 4 -53 2 -67 -4 l-25 -10 30 -1 30
-2 -30 -7 c-16 -4 -55 -20 -85 -34 l-55 -27 -12 38 -11 37 -2 -45 c-1 -40 -5
-48 -35 -67 -23 -14 -37 -18 -41 -11 -4 7 -10 5 -16 -5 -4 -9 -32 -29 -61 -46
-28 -16 -91 -61 -139 -100 -49 -39 -88 -68 -88 -65 0 4 -17 -18 -37 -47 -20
-30 -60 -83 -88 -119 -50 -63 -54 -66 -91 -62 -22 2 -57 -1 -79 -7 -36 -9 -33
-10 33 -7 39 2 72 -1 72 -6 0 -5 -9 -26 -20 -48 -11 -22 -20 -47 -20 -57 0
-15 4 -14 19 6 10 14 17 31 14 38 -11 28 177 269 268 345 35 29 72 60 82 69 9
9 30 21 45 28 32 15 70 34 97 48 49 26 175 83 183 83 5 0 51 13 102 30 51 17
108 30 127 30 18 0 82 12 141 26 59 14 134 29 167 33 l61 7 -29 -81 c-32 -89
-67 -279 -67 -360 0 -29 -9 -81 -19 -116 -28 -91 -70 -296 -77 -380 -5 -52
-10 -67 -16 -54 -9 15 -11 297 -4 385 8 89 54 259 90 328 18 35 21 62 7 62
-18 0 -86 -203 -103 -303 -6 -38 -17 -75 -25 -82 -7 -8 -29 -49 -49 -92 -79
-170 -94 -204 -94 -211 0 -4 -4 -13 -9 -21 -8 -12 -16 -10 -45 12 -38 30 -46
32 -46 16 0 -7 17 -26 37 -44 l36 -31 -35 -115 c-42 -133 -71 -249 -102 -408
l-22 -113 -26 88 c-46 154 -52 202 -52 369 0 128 5 181 23 265 21 99 64 238
93 305 11 25 108 176 143 221 16 21 -4 29 -21 8 -47 -59 -107 -160 -137 -235
-31 -73 -39 -85 -63 -89 -23 -4 -34 -17 -55 -60 -51 -107 -118 -329 -120 -399
-1 -20 -5 -47 -9 -61 -15 -46 -11 47 5 140 19 109 37 168 92 309 49 126 86
197 117 222 12 10 15 18 9 22 -6 4 -17 -1 -25 -11 -32 -36 -131 -242 -164
-342 -20 -58 -48 -123 -64 -145 -56 -81 -158 -299 -210 -450 l-27 -80 -8 80
c-21 208 -5 347 65 600 32 114 107 280 147 324 12 14 46 57 74 95 52 70 136
157 191 198 66 50 93 77 77 78 -37 0 -197 -142 -272 -241 -20 -26 -46 -43 -99
-64 -40 -16 -77 -34 -83 -40 -5 -7 -53 -37 -105 -68 -116 -68 -180 -114 -180
-128 0 -6 19 4 43 23 23 18 61 42 84 53 24 11 43 23 43 27 0 18 226 136 237
124 2 -2 -10 -24 -27 -50 -70 -103 -150 -312 -192 -501 -26 -120 -34 -328 -18
-461 7 -58 16 -106 19 -109 4 -2 15 24 25 58 41 147 169 435 221 502 15 19 15
19 8 -10 -4 -16 -7 -102 -7 -190 0 -176 21 -347 54 -434 11 -28 20 -60 20 -71
0 -11 5 -20 11 -20 5 0 9 8 8 17 -4 30 12 159 22 174 5 9 9 -29 9 -101 1 -63
4 -166 6 -229 8 -170 14 -161 -111 -161 -57 0 -106 -4 -109 -9 -4 -5 20 -8 54
-8 33 1 62 -2 64 -8 2 -6 12 -5 26 3 18 11 24 11 30 1 5 -6 15 -9 24 -6 14 5
16 -3 16 -56 0 -70 9 -137 19 -137 3 0 7 94 8 208 2 178 17 454 28 509 2 10 4
22 4 26 2 22 22 -10 39 -66 14 -43 24 -114 31 -237 10 -163 39 -430 47 -439
14 -16 15 25 1 136 -9 70 -19 164 -22 208 -3 44 -7 100 -10 125 l-4 45 10 -40
c5 -22 15 -58 21 -80 15 -51 14 -48 21 -65 3 -8 19 -55 35 -105 50 -150 68
-195 75 -188 4 3 8 85 8 182 1 149 3 165 10 101 7 -73 24 -206 35 -283 6 -36
6 -37 50 -37 37 0 49 5 69 27 25 30 47 24 27 -7 -15 -25 -5 -26 21 -3 18 17
19 17 28 0 6 -9 14 -17 20 -17 17 0 -5 30 -32 44 -20 10 -24 18 -22 51 5 64
-2 183 -13 261 -4 26 -2 44 5 48 6 4 11 18 11 31 0 15 7 26 20 30 11 3 25 15
30 26 13 22 50 26 50 4 0 -9 9 -15 25 -15 27 0 65 -31 65 -54 0 -8 16 -23 35
-35 21 -12 42 -36 51 -56 10 -24 21 -35 35 -35 11 0 39 -18 62 -39 38 -36 41
-42 29 -61 -14 -24 -8 -59 21 -107 22 -37 20 -39 -19 -18 -29 15 -40 10 -56
-24 -2 -3 -23 -16 -48 -28 l-45 -22 61 0 62 -1 -2 31 c-2 45 17 46 59 4 20
-21 38 -35 41 -33 4 5 -14 49 -46 110 -31 58 -27 74 21 82 30 5 48 2 65 -9 30
-19 101 -109 122 -152 14 -30 20 -33 63 -33 43 0 47 2 52 27 3 16 19 102 36
193 29 160 30 162 25 75 -3 -50 -12 -116 -20 -148 -17 -71 -19 -100 -4 -77 5
8 19 39 30 69 12 29 29 72 39 95 57 124 82 193 112 301 18 66 19 67 13 20 -20
-182 -63 -434 -90 -532 -5 -19 -2 -23 15 -23 23 0 27 11 36 110 8 82 73 530
74 509 1 -8 7 -24 15 -35 13 -17 15 -14 21 43 5 42 14 68 27 80 30 27 58 97
58 145 1 42 1 43 15 18 9 -15 13 -40 10 -60 -2 -19 -7 -73 -10 -120 -3 -47
-10 -128 -15 -180 -13 -143 -22 -519 -11 -495 5 11 10 46 10 77 1 31 5 60 11
63 5 3 102 6 215 6 113 0 212 2 220 5 9 4 15 19 15 35 l0 29 -227 2 -228 3 2
43 c0 23 1 49 2 58 1 13 20 15 139 14 75 -1 176 -1 225 -1 l87 1 -1 703 c0
386 -3 696 -6 690 -7 -19 -63 -17 -63 2 0 8 -4 15 -10 15 -5 0 -10 5 -10 10 0
6 14 10 30 10 17 0 30 -4 30 -10 0 -5 5 -10 10 -10 6 0 10 9 10 21 0 16 -4 19
-20 14 -28 -9 -57 2 -63 24 -4 15 -18 21 -63 27 -33 4 -52 9 -44 12 22 7 30
23 30 62 0 54 -10 80 -31 80 -28 0 -21 30 11 43 8 4 -22 5 -67 4 -64 -3 -83
-1 -83 10 0 9 -15 13 -50 13 -27 0 -50 -4 -50 -10 0 -5 8 -10 18 -10 14 -1 15
-2 2 -9 -29 -16 -63 -24 -56 -12 5 7 -5 11 -29 11 -20 0 -34 -4 -31 -8 3 -5
-3 -8 -14 -7 -10 1 -42 21 -70 46 -29 24 -63 50 -76 57 -14 7 -22 17 -19 22 4
6 2 10 -4 10 -6 0 -15 15 -21 33 -10 31 -10 31 -6 -11 8 -85 -29 -150 -61
-106 -10 14 -13 34 -8 74 8 72 33 160 45 160 6 0 10 9 10 20 0 11 -4 20 -8 20
-9 0 -37 -61 -48 -103 -5 -21 -11 -26 -23 -21 -9 4 -28 9 -43 12 -16 2 -28 8
-28 13 0 5 -13 9 -30 9 -16 0 -39 4 -52 9 -25 10 -87 27 -130 36 l-27 5 6 113
c7 129 -12 249 -52 326 -31 60 -52 88 -60 79 -4 -4 3 -20 15 -35 43 -55 67
-136 75 -256 l5 -72 -19 60 c-42 136 -83 202 -164 261 -50 37 -66 44 -106 44
l-46 -1 45 -16z m402 -548 c33 -6 164 -52 196 -67 19 -10 22 -19 22 -69 0 -52
3 -61 25 -75 24 -16 27 -15 44 0 11 10 22 29 25 42 7 25 7 25 37 7 17 -10 68
-57 114 -105 66 -69 92 -106 130 -183 26 -54 54 -120 62 -149 21 -73 28 -317
14 -429 -18 -137 -19 -138 -48 -73 -14 31 -30 56 -36 56 -5 0 -6 -8 -2 -17 3
-10 26 -67 50 -128 36 -91 95 -284 95 -312 0 -4 -10 7 -22 24 -69 95 -130 159
-160 169 -21 6 -21 17 2 134 17 89 30 354 20 412 -5 29 -11 98 -14 152 -3 56
-11 104 -17 110 -9 8 -10 2 -5 -24 12 -62 27 -323 21 -385 -2 -33 -7 -94 -10
-135 -4 -41 -12 -102 -20 -135 l-13 -60 -1 71 c-1 82 -29 373 -37 386 -3 4
-16 61 -29 126 -20 104 -59 219 -79 240 -10 9 4 -67 15 -90 5 -9 9 -28 9 -42
0 -14 7 -29 15 -33 8 -5 21 -41 30 -81 18 -88 18 -84 2 -80 -17 4 -20 -8 -13
-67 15 -129 39 -585 34 -653 l-3 -53 -38 93 c-21 51 -47 114 -58 140 -10 26
-19 60 -19 77 0 16 -7 34 -14 38 -15 8 -66 114 -66 136 0 7 25 27 55 45 30 18
55 37 55 43 0 13 -3 12 -67 -21 l-58 -30 -27 57 c-57 120 -80 179 -89 223 -38
202 -60 287 -66 258 -3 -9 5 -50 15 -90 38 -139 72 -479 50 -505 -6 -8 -15
-10 -19 -6 -4 4 -31 71 -59 148 -82 220 -99 264 -115 295 -11 21 -15 63 -15
159 0 71 -4 132 -9 135 -5 4 -10 -164 -10 -411 -1 -321 -4 -419 -13 -426 -10
-7 -10 -10 0 -14 8 -3 12 -33 11 -106 -1 -91 -15 -198 -18 -141 0 11 -10 47
-20 80 -30 93 -95 347 -111 434 -33 177 -43 230 -50 269 -7 42 -22 61 -47 61
-7 0 -13 7 -13 15 0 8 9 15 21 15 15 0 19 5 15 18 -13 41 -26 129 -27 181 0
49 -2 53 -11 31 -11 -24 -17 -313 -9 -415 7 -91 1 -400 -8 -385 -27 49 -59
255 -71 453 -14 241 23 517 86 639 14 26 20 29 45 24 17 -3 45 -17 63 -31 18
-14 38 -25 44 -25 23 0 11 25 -21 45 l-32 20 55 5 c51 5 149 -2 212 -15z
m-462 -780 c14 -122 56 -347 75 -395 8 -19 21 -57 29 -85 l15 -50 -4 45 c-7
72 -18 455 -13 450 3 -3 28 -84 56 -180 28 -96 61 -202 72 -235 27 -80 121
-287 127 -281 13 12 23 262 23 555 0 179 2 323 4 320 8 -9 145 -368 161 -424
10 -33 20 -66 22 -72 8 -20 -54 -16 -66 4 -8 16 -12 16 -49 -1 -38 -17 -41
-21 -35 -50 3 -17 12 -38 19 -46 7 -8 10 -27 7 -42 -7 -38 5 -87 17 -67 8 12
14 12 40 -3 25 -14 34 -15 51 -5 44 28 107 -44 95 -109 -8 -41 -36 -58 -79
-49 -42 10 -57 23 -57 51 0 20 -5 24 -30 24 -28 0 -29 -2 -23 -32 3 -18 6 -34
7 -35 2 -3 189 -33 190 -31 7 11 48 200 53 239 5 40 9 49 26 49 21 0 21 -16 2
-141 -3 -20 5 -5 20 36 13 39 25 72 25 75 1 3 10 -12 20 -32 20 -36 20 -38 0
-180 -31 -218 -27 -209 -85 -240 -58 -32 -207 -82 -281 -96 l-52 -9 -11 38
c-12 40 -52 79 -80 79 -11 0 -7 -6 11 -17 27 -17 67 -78 57 -88 -12 -11 -98
-20 -167 -17 -66 3 -74 6 -84 28 -10 21 -8 28 17 54 16 17 39 30 52 30 13 0
23 5 23 10 0 25 -68 -3 -101 -41 -21 -25 -31 -29 -52 -24 -15 4 -27 11 -27 16
0 20 -59 8 -78 -16 l-19 -24 -78 30 c-147 56 -181 96 -196 228 -5 41 -15 109
-24 150 -8 42 -17 86 -19 98 -6 31 13 95 27 90 6 -2 22 -38 35 -81 27 -89 38
-94 23 -10 -16 84 -16 84 25 84 34 0 36 -2 30 -26 -4 -14 -4 -46 0 -70 5 -37
9 -43 21 -32 11 9 22 9 48 -1 20 -7 49 -9 70 -5 25 4 42 1 61 -10 22 -15 25
-23 22 -64 -3 -42 -6 -49 -38 -65 l-35 -18 45 3 45 3 11 145 c6 80 17 158 25
174 12 25 11 30 -6 43 -14 10 -33 12 -67 8 l-48 -7 -2 39 c-4 108 15 247 60
428 l27 110 2 -65 c2 -36 8 -110 13 -165z m-144 -44 l1 -218 -61 34 c-34 19
-69 42 -79 52 -20 19 -21 16 63 197 21 44 43 97 51 117 7 20 15 37 19 37 3 0
5 -98 6 -219z m789 -90 c30 -76 34 -95 24 -103 -28 -18 -51 -30 -53 -26 -5 5
-17 232 -13 227 3 -2 21 -46 42 -98z m-792 -143 c25 -18 38 -61 20 -71 -5 -2
-50 -1 -101 2 -51 3 -100 3 -107 -2 -24 -13 -24 6 1 86 l25 77 67 -37 c37 -20
79 -45 95 -55z m857 -10 c6 -18 15 -45 20 -59 l8 -27 -59 1 c-36 1 -59 6 -59
13 0 6 -3 25 -6 42 -5 26 -2 32 22 46 44 23 61 20 74 -16z m-110 -38 c0 -11
-4 -20 -10 -20 -5 0 -10 9 -10 20 0 11 5 20 10 20 6 0 10 -9 10 -20z m414
-242 c31 -44 9 -173 -31 -186 -16 -5 -18 123 -3 133 6 3 10 11 10 16 0 6 -4 7
-10 4 -11 -7 -13 15 -4 39 8 22 20 20 38 -6z m-1597 -180 c-3 -8 -6 -5 -6 6
-1 11 2 17 5 13 3 -3 4 -12 1 -19z m1320 -305 c-3 -10 -5 -2 -5 17 0 19 2 27
5 18 2 -10 2 -26 0 -35z m-393 -63 c8 -31 18 -48 34 -55 17 -7 22 -18 22 -45
0 -68 -43 -80 -81 -23 -13 20 -43 47 -67 59 -30 16 -50 37 -67 69 l-25 46 87
-3 86 -3 11 -45z"/>
<path d="M2081 1803 c-25 -84 -26 -107 -5 -127 20 -20 29 -20 50 1 14 14 16
30 11 91 -4 46 -11 81 -21 90 -13 13 -17 7 -35 -55z m45 -19 c8 -53 -6 -109
-26 -109 -8 0 -17 11 -19 25 -4 32 18 130 29 130 5 0 12 -21 16 -46z"/>
<path d="M1100 823 c0 -6 4 -23 10 -37 8 -23 15 -26 55 -26 47 0 60 14 24 25
-11 4 -24 16 -28 28 -8 22 -61 32 -61 10z"/>
<path d="M2036 691 c-4 -7 -5 -15 -2 -18 9 -9 19 4 14 18 -4 11 -6 11 -12 0z"/>
<path d="M622 2675 c0 -16 2 -22 5 -12 2 9 2 23 0 30 -3 6 -5 -1 -5 -18z"/>
<path d="M300 2414 c0 -8 5 -12 10 -9 6 3 10 10 10 16 0 5 -4 9 -10 9 -5 0
-10 -7 -10 -16z"/>
<path d="M622 2390 c0 -19 2 -27 5 -17 2 9 2 25 0 35 -3 9 -5 1 -5 -18z"/>
<path d="M311 2143 c0 -127 2 -234 7 -237 7 -4 5 386 -2 444 -2 14 -4 -79 -5
-207z"/>
<path d="M2071 2274 c0 -11 3 -14 6 -6 3 7 2 16 -1 19 -3 4 -6 -2 -5 -13z"/>
<path d="M863 2264 c7 -8 87 -7 95 0 3 3 -19 6 -48 6 -29 0 -51 -3 -47 -6z"/>
<path d="M623 2170 c0 -30 2 -43 4 -27 2 15 2 39 0 55 -2 15 -4 2 -4 -28z"/>
<path d="M612 560 c0 -19 2 -27 5 -17 2 9 2 25 0 35 -3 9 -5 1 -5 -18z"/>
<path d="M382 500 c0 -14 2 -19 5 -12 2 6 2 18 0 25 -3 6 -5 1 -5 -13z"/>
<path d="M612 495 c0 -16 2 -22 5 -12 2 9 2 23 0 30 -3 6 -5 -1 -5 -18z"/>
<path d="M7 233 c7 -2 19 -2 26 0 6 3 1 5 -13 5 -14 0 -19 -2 -13 -5z"/>
<path d="M75 191 c-3 -5 -2 -12 3 -15 5 -3 9 1 9 9 0 17 -3 19 -12 6z"/>
<path d="M1690 184 c0 -6 15 -28 33 -50 18 -21 48 -60 67 -86 36 -52 43 -58
33 -30 -16 42 -132 188 -133 166z"/>
</g>
</svg>
